<?xml version="1.0" encoding="UTF-8"?>
<!-- Generated by Pixelmator Pro 3.6.18 -->
<svg width="7087" height="1772" viewBox="0 0 7087 1772" xmlns="http://www.w3.org/2000/svg">
    <g id="paw">
        <path id="Path" fill="#c67838" stroke="none" d="M 1564.811768 1007.506775 C 1655.83313 1109.338745 1543.965942 1205.897217 1479.855591 1222.20459 C 1415.745239 1238.511841 1301.005981 1300.100586 1301.005981 1300.100586 C 1301.005981 1300.100586 1188.804077 1366.90686 1141.804321 1413.458252 C 1094.864868 1460.115967 954.315979 1506.222168 913.808594 1375.813965 C 873.301147 1245.405762 987.261475 1187.585205 929.130493 1013.774536 C 870.894958 840.023193 1005.349426 777.263184 1005.349426 777.263184 C 1005.349426 777.263184 1128.081177 694.519165 1247.019165 833.927979 C 1365.849121 973.39801 1473.89502 905.615479 1564.811768 1007.506775 Z M 1116.05127 701.187012 C 1195.586548 682.250854 1240.556396 585.554565 1216.607666 485.147461 C 1192.717529 384.8479 1108.935669 318.846558 1029.400391 337.782715 C 949.862549 356.718018 904.895447 453.415161 928.844116 553.822144 C 952.734314 654.121704 1036.516113 720.123047 1116.05127 701.187012 Z M 1381.623291 509.489868 C 1300.567261 519.856201 1245.490723 611.18457 1258.623901 713.546997 C 1271.758911 815.912903 1348.037231 890.456421 1429.032104 879.981934 C 1510.027832 869.509277 1565.164551 778.287354 1552.030396 675.923096 C 1538.89624 573.55896 1462.67981 499.120972 1381.623291 509.489868 Z M 882.387634 833.382996 C 939.583374 774.960754 926.164185 669.153809 852.497131 597.015625 C 778.830017 524.877441 672.678589 513.67627 615.585754 572.040161 C 558.493713 630.401489 571.808228 736.267456 645.476257 808.407471 C 719.145081 880.544739 825.190918 891.803467 882.387634 833.382996 Z M 874.540222 1193.6875 C 925.177368 1129.550293 900.568726 1025.774658 819.651184 961.897278 C 738.733643 898.019958 632.025208 898.086121 581.390747 962.224121 C 530.755249 1026.360352 555.363953 1130.136108 636.280518 1194.011719 C 717.255554 1257.994629 823.904785 1257.82373 874.540222 1193.6875 Z"/>
    </g>
    <path id="Dogventures" fill="#c67838" fill-rule="evenodd" stroke="none" d="M 6884.28418 865.577271 C 6856.209473 837.328552 6818.004395 821.481079 6778.186523 821.570618 L 6700.916504 821.536865 C 6689.474121 821.53186 6680.197754 812.247681 6680.202637 800.80542 C 6680.20752 789.363037 6689.492188 780.097656 6700.93457 780.102661 L 6884.567871 780.182861 L 6884.624023 650.731934 L 6700.990723 650.651611 C 6618.047363 650.615356 6550.787598 717.816284 6550.751465 800.759521 C 6550.715332 883.692139 6617.916504 950.962402 6700.859863 950.998657 L 6778.129883 951.03241 C 6789.529297 951.037415 6798.762207 960.278748 6798.757324 971.678223 C 6798.752441 983.077698 6789.51123 992.311035 6778.111816 992.30603 L 6594.478516 992.22583 L 6594.421875 1121.67688 L 6780.078125 1121.758057 C 6840.415527 1120.981567 6894.410645 1084.141479 6917.148438 1028.24585 C 6939.88623 972.350037 6926.941406 908.27179 6884.28418 865.588013 Z M 6264.234375 989.865845 C 6245.020508 990.54248 6226.034668 985.535522 6209.662109 975.456177 L 6353.717773 916.038391 L 6371.478027 908.71405 L 6502.03418 854.82428 L 6476.63916 794.690186 L 6476.232422 793.748047 L 6476.158203 793.55542 L 6475.81543 792.763184 L 6475.740723 792.591919 L 6475.334473 791.671143 L 6475.248535 791.457031 L 6474.981445 790.836182 L 6474.746094 790.322266 L 6474.650391 790.086792 C 6472.575684 785.472534 6470.340332 780.986694 6467.998535 776.564941 C 6467.260254 775.173218 6466.521973 773.792114 6465.762695 772.421631 C 6463.848633 768.984985 6461.870117 765.612427 6459.827148 762.293335 C 6458.832031 760.687378 6457.826172 759.081299 6456.789063 757.496704 C 6455.141602 754.969971 6453.494141 752.464478 6451.76123 750.012695 L 6451.686523 750.012573 C 6386.562012 658.360107 6265.742188 625.510986 6163.180176 671.556519 C 6060.606934 717.612793 6004.877441 829.720764 6030.090332 939.284668 L 6030.34668 940.408691 C 6034.748535 959.270569 6041.505371 977.491333 6050.467285 994.65332 L 6050.692383 995.102966 C 6057.387207 1007.843384 6065.270508 1019.931335 6074.213867 1031.195557 L 6074.256836 1031.259766 C 6121.156738 1089.32666 6192.086426 1122.699951 6266.724121 1121.822632 C 6336.961914 1121.853271 6393.305664 1099.464355 6455.01416 1046.968018 L 6371.171875 948.349854 C 6332.924316 980.915344 6303.056641 989.882751 6264.234375 989.865784 Z M 6160.160645 870.195251 C 6164.104492 834.103943 6186.938477 802.837524 6220.115723 788.113037 C 6231.710449 783.001709 6244.245605 780.384766 6256.907715 780.433105 C 6279.610352 780.47522 6301.656738 788.041626 6319.601074 801.942871 C 6320.285645 802.510498 6320.949219 803.110229 6321.612305 803.720581 L 6241.598633 836.728088 L 6164.849609 868.388367 L 6160.13916 870.323669 Z M 5899.210938 650.312012 C 5883.711914 650.294556 5868.287109 652.310791 5853.332031 656.328857 L 5853.334961 650.291992 L 5723.883789 650.235474 L 5723.677734 1121.638916 L 5853.128906 1121.695557 L 5853.258301 825.619263 C 5853.255371 807.059021 5864.448242 790.333984 5881.598633 783.244873 C 5898.749023 776.14502 5918.484863 780.081909 5931.591797 793.221191 L 6023.148926 701.701416 C 5990.355957 668.70874 5945.729492 650.203857 5899.210938 650.312012 Z M 5508.335449 650.141235 L 5508.220215 914.587891 C 5508.201172 957.392151 5473.484863 992.078491 5430.680176 992.059814 C 5387.875977 992.041138 5353.189941 957.324402 5353.208496 914.520142 L 5353.324219 650.073486 L 5223.873047 650.016968 L 5223.757324 914.463623 C 5223.727539 983.256531 5257.886719 1047.568848 5314.899902 1086.062988 C 5371.912598 1124.557251 5444.330566 1132.209961 5508.125488 1106.473877 L 5508.118652 1121.534058 L 5637.569824 1121.590576 L 5637.775879 650.197876 Z M 5149.383301 779.435425 L 5149.439941 649.984375 L 5087.476074 649.957275 L 5087.597168 372.612671 L 4958.145996 372.556152 L 4958.024902 649.900757 L 4920.465332 649.884277 L 4920.408691 779.335449 L 4957.968262 779.351807 L 4957.874512 994.272278 C 4957.918945 1064.210571 5014.570313 1120.911621 5084.508789 1121.01709 L 5149.234375 1121.04541 L 5149.291016 991.59436 L 5087.32666 991.567261 L 5087.419434 779.408325 Z M 4648.840332 649.765747 C 4622.273926 649.721924 4595.94043 654.826782 4571.317383 664.791992 L 4571.324219 649.731812 L 4441.873047 649.675293 L 4441.666992 1121.078735 L 4571.118164 1121.135254 L 4571.233887 856.699341 C 4571.252441 813.895081 4605.969238 779.20874 4648.772949 779.227417 C 4691.577637 779.246094 4726.263672 813.96283 4726.245117 856.76709 L 4726.129395 1121.224487 L 4855.580566 1121.281006 L 4855.696289 856.823669 C 4855.628418 742.58252 4763.081543 649.944092 4648.840332 649.765747 Z M 4139.234375 988.937317 C 4120.020996 989.613953 4101.034668 984.607056 4084.662354 974.527649 L 4228.717773 915.109863 L 4246.478516 907.785522 L 4377.03418 853.895752 L 4351.63916 793.761719 L 4351.23291 792.81958 L 4351.157715 792.626953 L 4350.815918 791.834717 L 4350.740723 791.66333 L 4350.334473 790.742676 L 4350.249023 790.528564 L 4349.981445 789.907715 L 4349.746582 789.393799 L 4349.650391 789.158203 C 4347.575684 784.543945 4345.34082 780.058105 4342.998535 775.636475 C 4342.260254 774.244629 4341.522461 772.863525 4340.763184 771.493164 C 4338.848633 768.056396 4336.869629 764.68396 4334.82666 761.364868 C 4333.832031 759.758789 4332.82666 758.152832 4331.789063 756.568237 C 4330.141602 754.041382 4328.494629 751.536011 4326.761719 749.084106 L 4326.686523 749.084106 C 4261.5625 657.431519 4140.742188 624.58252 4038.180176 670.628052 C 3935.607666 716.684204 3879.877686 828.792297 3905.090576 938.35614 L 3905.347168 939.480164 C 3909.748779 958.342102 3916.505615 976.562805 3925.467773 993.724792 L 3925.692383 994.174438 C 3932.387207 1006.914856 3940.270752 1019.002808 3949.214111 1030.26709 L 3949.256836 1030.331299 C 3996.156738 1088.398193 4067.08667 1121.771362 4141.724121 1120.894165 C 4211.962402 1120.924805 4268.305664 1098.535767 4330.01416 1046.039551 L 4246.172363 947.421326 C 4207.924316 979.986816 4178.056641 988.954224 4139.234375 988.937256 Z M 4035.160645 869.266724 C 4039.104736 833.175476 4061.938721 801.909058 4095.116211 787.18457 C 4106.710449 782.073242 4119.245605 779.456299 4131.908203 779.504639 C 4154.61084 779.546631 4176.657227 787.113159 4194.601074 801.014404 C 4195.286133 801.582031 4195.949219 802.181763 4196.612793 802.792114 L 4116.598633 835.799561 L 4039.849609 867.459839 L 4035.13916 869.395142 Z M 3742.784912 649.369751 L 3617.686523 951.385498 L 3492.852539 649.26062 L 3352.761963 649.199341 L 3547.567383 1120.68811 L 3687.657959 1120.749268 L 3882.875488 649.43103 Z M 3245.479492 649.473511 C 3211.858887 649.351929 3179.602783 662.696045 3155.894287 686.522949 C 3153.677734 688.726929 3151.557373 691.005859 3149.522705 693.359741 C 3054.41748 625.285278 2923.751465 637.344849 2842.719482 721.697754 C 2761.697998 806.039978 2754.865479 937.082886 2826.700684 1029.380615 C 2780.517334 1070.82666 2764.679199 1136.455078 2786.864258 1194.414795 C 2809.049072 1252.364014 2864.67041 1290.632813 2926.719971 1290.638428 L 3098.118896 1290.713379 C 3109.379395 1290.718262 3118.505859 1299.852539 3118.500732 1311.112793 C 3118.49585 1322.373291 3109.361572 1331.499512 3098.101074 1331.494629 L 2947.692383 1331.428955 L 2947.635742 1460.879883 L 3098.066162 1460.945679 C 3180.81665 1460.981812 3247.937012 1393.920166 3247.973145 1311.158691 C 3248.009521 1228.408203 3180.947754 1161.287842 3098.197021 1161.251587 L 2926.798096 1161.176758 C 2915.526855 1161.171753 2906.400635 1152.037598 2906.405518 1140.7771 C 2906.4104 1129.516846 2915.544678 1120.390503 2926.815918 1120.395508 L 3012.520752 1120.432861 C 3074.987793 1120.481567 3134.928711 1095.707275 3179.122559 1051.552246 C 3223.316162 1007.386414 3248.153564 947.477722 3248.159424 884.999939 L 3248.205811 778.925903 L 3310.148193 778.952881 L 3310.204834 649.501953 Z M 3012.648682 778.822998 C 3055.549072 778.841675 3094.221191 804.697449 3110.623291 844.351257 C 3127.025635 884.005066 3117.928955 929.631165 3087.570557 959.952332 C 3057.2229 990.28418 3011.588867 999.330322 2971.949463 982.893494 C 2932.320557 966.456604 2906.487793 927.761963 2906.506592 884.850647 C 2906.607178 826.290527 2954.099121 778.850952 3012.659424 778.822998 Z M 2477.716064 648.838379 C 2382.452637 648.796753 2296.540771 706.141968 2260.04541 794.142944 C 2223.550049 882.14386 2243.650146 983.463623 2310.98999 1050.851685 C 2378.319336 1118.239746 2479.621582 1138.439209 2567.654297 1102.020752 C 2655.687012 1065.602295 2713.107178 979.740479 2713.148926 884.466431 C 2713.045166 754.45874 2607.734375 649.055786 2477.716064 648.838379 Z M 2477.56665 990.448303 C 2434.655518 990.429565 2395.983398 964.56311 2379.581299 924.919983 C 2363.168213 885.266174 2372.264893 839.640076 2402.623291 809.308228 C 2432.970947 778.976318 2478.615723 769.919556 2518.255127 786.356323 C 2557.884033 802.793213 2583.716797 841.487915 2583.697998 884.39917 C 2583.618896 942.970032 2536.137695 990.409668 2477.56665 990.458984 Z M 1927.550049 371.231934 L 1632.597656 371.103027 L 1632.541138 500.554077 L 1688.810669 500.578613 L 1688.540161 1119.865112 L 1927.212158 1119.969482 C 2059.617432 1119.877441 2166.95874 1012.629944 2167.166504 880.224731 L 2167.283936 611.20752 C 2167.202637 478.802246 2059.955322 371.439697 1927.550049 371.231934 Z M 2037.715332 880.178894 C 2037.61377 941.125916 1988.21582 990.480774 1927.268677 990.529053 L 1818.047729 990.481323 L 1818.261719 500.635254 L 1927.493408 500.682983 C 1988.42981 500.784546 2037.784668 550.182495 2037.832886 611.118896 Z"/>
</svg>
